<svg xmlns="http://www.w3.org/2000/svg" xmlns:xlink="http://www.w3.org/1999/xlink" version="1.0" x="0px" y="0px" viewBox="0 0 100 100"  enable-background="new 0 0 100 100" xml:space="preserve"><path fill="white" d="M24.4946575,55.6407852c-6.7314453,5.4836197-12.9529505,11.7366104-18.3295307,18.360054l24.4523773-12.2373161  L24.4946575,55.6407852z"></path><path fill="white" d="M88.2542496,30.0580444c-3.875885-3.8748055-10.0007706-4.1267128-14.1725159-0.7556171  c-3.1727066,0.8479328-11.6075401,7.0652447-14.3352165,7.6928654c0.6538429-2.8190269,7.2636299-11.7356453,7.7474556-14.6259232  c3.2062454-4.1644344,2.9133911-10.1571369-0.9026337-13.973156c-4.1455193-4.1455202-10.866539-4.147562-15.0142097,0  c-4.1455193,4.145627-4.1455193,10.8686905,0,15.0142097c1.6897392,1.6875916,3.808712,2.6763077,6.0032349,2.9890442  l-4.353363,6.3642235l1.4766273,1.4777031l2.2816772,2.2795296l2.0223579,2.0234337l3.0162354,3.0162315l1.9552956,1.9542198  l6.2917862-4.3029594c0.3336945,2.1451912,1.3160706,4.2084961,2.9679794,5.860405  c4.1475601,4.1455193,10.8707352,4.1455193,15.0152893,0C92.4008408,40.9267349,92.4008408,34.2035637,88.2542496,30.0580444z   M58.6980438,20.1695805c-2.6720085,0-4.8361168-2.1650753-4.8361168-4.8361177  c0-2.6709337,2.1641083-4.8361177,4.8361168-4.8361177c2.6710434,0,4.8361206,2.165184,4.8361206,4.8361177  C63.5341644,18.0045052,61.3690872,20.1695805,58.6980438,20.1695805z M80.4605713,42.4694557  c-2.6710358,0-4.836113-2.1650772-4.836113-4.8361168c0-2.6709328,2.1650772-4.8361168,4.836113-4.8361168  c2.6699677,0,4.8361206,2.165184,4.8361206,4.8361168C85.2966919,40.3043785,83.1305389,42.4694557,80.4605713,42.4694557z"></path><path fill="white" d="M22.7420483,90.576683c6.6265564-5.3734665,12.8794422-11.5949707,18.362093-18.3265228l-6.127037-6.1258545  L22.7420483,90.576683z"></path><path fill="white" d="M49.8433304,59.9836159l-3.1212311-3.1212273l13.0222664-13.0222702l-3.0151558-3.0162315L45.8574028,51.6946182  c-0.5940933,0.5939827-1.3717384,0.8910294-2.1504631,0.8910294c-0.7787209,0-1.5585175-0.2970467-2.1525002-0.8921013  c-1.1870003-1.1870003-1.1870003-3.1138153,0.0009651-4.3018913l10.8697662-10.8707314l-1.050621-1.0495453l-1.3590546-1.3601303  L39.1447639,44.9819794c-0.5950584,0.5939827-1.3717384,0.8899536-2.1504631,0.8899536  c-0.7787209,0-1.5585175-0.296936-2.1535759-0.8921013c-1.1869965-1.1859245-1.1869965-3.1127396,0-4.3008118l10.8728828-10.8707352  l-2.4118271-2.4096756L32.4321251,38.2682686c-0.5940914,0.5940895-1.3737812,0.8910255-2.1526108,0.8910255  c-0.7787228,0-1.5563698-0.2959709-2.1503525-0.8899536c-1.1869984-1.1880722-1.1869984-3.1148872,0.000967-4.3029594  l10.8708401-10.8707352l-2.4107513-2.4096756L25.7194843,31.5567036c-0.5940895,0.5939808-1.3717384,0.8910275-2.1504593,0.8910275  c-0.7787228,0-1.5585194-0.2970467-2.1525021-0.8921032c-1.1869984-1.1869984-1.1880741-3.1138134,0-4.3018875L32.2872543,16.383007  l-3.2366524-3.2366514L11.9153776,30.2805061c-2.2701807,2.2711487-2.2701807,5.9528313,0,8.2239799l15.1222181,15.1212502  l6.6181736,6.6181717l2.8432083,2.8420258l6.6202126,6.6203194l23.8027306,23.8027267  c1.1356277,1.1355209,2.6238556,1.703392,4.1119843,1.703392c1.4882355,0,2.9763641-0.5678711,4.1119919-1.703392  c2.2711487-2.2711487,2.2711487-5.9528275,0-8.2238693L49.8433304,59.9836159z"></path></svg>